<?xml version="1.0" encoding="UTF-8" standalone="no"?>
<!-- Created with Inkscape (http://www.inkscape.org/) -->

<svg
   xmlns:i="http://ns.adobe.com/AdobeIllustrator/10.0/"
   xmlns:dc="http://purl.org/dc/elements/1.1/"
   xmlns:cc="http://creativecommons.org/ns#"
   xmlns:rdf="http://www.w3.org/1999/02/22-rdf-syntax-ns#"
   xmlns:svg="http://www.w3.org/2000/svg"
   xmlns="http://www.w3.org/2000/svg"
   xmlns:xlink="http://www.w3.org/1999/xlink"
   xmlns:sodipodi="http://sodipodi.sourceforge.net/DTD/sodipodi-0.dtd"
   xmlns:inkscape="http://www.inkscape.org/namespaces/inkscape"
   width="220"
   height="338"
   id="svg3375"
   version="1.1"
   inkscape:version="0.48.3.1 r9886"
   sodipodi:docname="days_portrait.svg">
  <defs
     id="defs3377">
    <radialGradient
       inkscape:collect="always"
       xlink:href="#linearGradient3755-2-4"
       id="radialGradient4943"
       gradientUnits="userSpaceOnUse"
       gradientTransform="matrix(0.14283008,0,0,0.27446607,-874.32873,616.87857)"
       cx="960"
       cy="512.36218"
       fx="960"
       fy="512.36218"
       r="960" />
    <linearGradient
       id="linearGradient3755-2-4">
      <stop
         style="stop-color:#8f9db3;stop-opacity:1;"
         offset="0"
         id="stop3757-00-8" />
      <stop
         style="stop-color:#161b2b;stop-opacity:1;"
         offset="1"
         id="stop3759-3-9" />
    </linearGradient>
    <radialGradient
       r="960"
       fy="512.36218"
       fx="960"
       cy="512.36218"
       cx="960"
       gradientTransform="matrix(0.14283008,0,0,0.27446607,288.59742,746.02138)"
       gradientUnits="userSpaceOnUse"
       id="radialGradient5084"
       xlink:href="#linearGradient3755-2-4"
       inkscape:collect="always" />
    <radialGradient
       inkscape:collect="always"
       xlink:href="#linearGradient3755-2-4"
       id="radialGradient3493"
       gradientUnits="userSpaceOnUse"
       gradientTransform="matrix(0.14283008,0,0,0.27446607,288.59742,746.02138)"
       cx="960"
       cy="512.36218"
       fx="960"
       fy="512.36218"
       r="960" />
    <radialGradient
       inkscape:collect="always"
       xlink:href="#linearGradient3755-2-4"
       id="radialGradient3526"
       gradientUnits="userSpaceOnUse"
       gradientTransform="matrix(0.14283008,0,0,0.27446607,-27.11686,742.73566)"
       cx="960"
       cy="512.36218"
       fx="960"
       fy="512.36218"
       r="960" />
  </defs>
  <sodipodi:namedview
     id="base"
     pagecolor="#ffffff"
     bordercolor="#666666"
     borderopacity="1.0"
     inkscape:pageopacity="0.0"
     inkscape:pageshadow="2"
     inkscape:zoom="0.35"
     inkscape:cx="-167.85714"
     inkscape:cy="520"
     inkscape:document-units="px"
     inkscape:current-layer="layer1"
     showgrid="false"
     inkscape:window-width="1364"
     inkscape:window-height="736"
     inkscape:window-x="0"
     inkscape:window-y="20"
     inkscape:window-maximized="0" />
  <metadata
     id="metadata3380">
    <rdf:RDF>
      <cc:Work
         rdf:about="">
        <dc:format>image/svg+xml</dc:format>
        <dc:type
           rdf:resource="http://purl.org/dc/dcmitype/StillImage" />
        <dc:title />
      </cc:Work>
    </rdf:RDF>
  </metadata>
  <g
     inkscape:label="Layer 1"
     inkscape:groupmode="layer"
     id="layer1"
     transform="translate(0,-714.36217)">
    <rect
       y="714.29181"
       x="-0.14372335"
       height="338.14075"
       width="220.28745"
       id="rect4873"
       style="fill:url(#radialGradient3526);fill-opacity:1;stroke:none;display:inline" />
    <g
       id="g4875"
       transform="matrix(1.4624758,0,0,1.4624758,30.47194,579.01465)"
       style="display:inline">
      <path
         style="fill:#c8c8c9;fill-opacity:1"
         i:knockout="Off"
         d="m 13.437,125.506 c -0.045,0.047 -0.045,7.506 -0.138,9.453 -0.092,1.574 -0.232,4.957 -3.568,4.957 -3.429,0 -4.263,-3.939 -4.541,-5.652 -0.324,-1.9 -0.324,-3.477 -0.324,-4.17 0,-2.225 0.139,-8.436 5.375,-8.436 1.576,0 2.456,0.465 3.151,0.834 l 0.045,3.014 z M 0,130.975 c 0,13.066 6.951,13.066 7.97,13.066 2.873,0 4.727,-1.576 5.514,-4.309 l 0.093,4.123 c 0.881,-0.047 1.761,-0.139 3.197,-0.139 0.51,0 0.926,0 1.298,0.047 0.371,0 0.741,0.045 1.158,0.092 -0.741,-1.482 -1.297,-4.818 -1.297,-12.049 0,-7.043 0,-18.951 0.602,-22.566 -1.667,0.789 -3.105,1.299 -6.256,1.576 1.251,1.344 1.251,2.039 1.251,8.154 -0.879,-0.277 -1.992,-0.602 -3.892,-0.602 C 1.344,118.369 0,125.598 0,130.975"
         id="path4877"
         inkscape:connector-curvature="0" />
      <path
         style="fill:#c8c8c9;fill-opacity:1"
         i:knockout="Off"
         d="m 25.13,128.609 c 0.047,-3.846 0.835,-7.275 4.124,-7.275 3.615,0 3.891,3.984 3.799,7.275 H 25.13 z m 12.51,0.465 c 0,-5.422 -1.065,-10.752 -7.923,-10.752 -9.452,0 -9.452,10.475 -9.452,12.697 0,9.406 4.216,13.113 11.306,13.113 3.149,0 4.68,-0.461 5.514,-0.695 -0.046,-1.668 0.185,-2.734 0.465,-4.17 -0.975,0.604 -2.226,1.391 -5.006,1.391 -7.229,0 -7.322,-6.582 -7.322,-8.852 H 37.55 l 0.09,-2.732"
         id="path4879"
         inkscape:connector-curvature="0" />
      <path
         style="fill:#c8c8c9;fill-opacity:1"
         i:knockout="Off"
         d="m 52.715,131.066 c 0,4.309 -0.787,10.102 -6.162,10.102 -0.742,0 -1.668,-0.141 -2.27,-0.279 -0.093,-1.668 -0.093,-4.541 -0.093,-7.877 0,-3.986 0.416,-6.068 0.742,-7.09 0.972,-3.289 3.15,-3.334 3.566,-3.334 3.522,0 4.217,4.865 4.217,8.478 z m -13.298,5.051 c 0,3.43 0,5.375 -0.556,6.857 1.9,0.742 4.262,1.158 7.09,1.158 1.807,0 7.043,0 9.869,-5.791 1.344,-2.688 1.807,-6.303 1.807,-9.037 0,-1.668 -0.186,-5.328 -1.529,-7.646 -1.296,-2.176 -3.382,-3.289 -5.605,-3.289 -4.449,0 -5.746,3.707 -6.44,5.607 0,-2.363 0.045,-10.611 0.415,-14.828 -3.011,1.391 -4.866,1.621 -6.857,1.807 1.807,0.74 1.807,3.801 1.807,13.764 v 11.398"
         id="path4881"
         inkscape:connector-curvature="0" />
      <path
         style="fill:#c8c8c9;fill-opacity:1"
         i:knockout="Off"
         d="m 66.535,143.855 c -0.928,-0.139 -1.578,-0.232 -2.922,-0.232 -1.48,0 -2.502,0.094 -3.566,0.232 0.463,-0.881 0.648,-1.299 0.787,-4.309 0.186,-4.125 0.232,-15.154 -0.092,-17.471 -0.232,-1.762 -0.648,-2.039 -1.297,-2.502 3.799,-0.371 4.865,-0.648 6.625,-1.482 -0.369,2.037 -0.418,3.059 -0.418,6.162 -0.091,15.989 -0.138,17.702 0.883,19.602"
         id="path4883"
         inkscape:connector-curvature="0" />
      <path
         style="fill:#c8c8c9;fill-opacity:1"
         i:knockout="Off"
         d="m 81.373,130.74 c -0.092,2.92 -0.139,4.959 -0.928,6.58 -0.973,2.086 -2.594,2.688 -3.799,2.688 -2.783,0 -3.383,-2.316 -3.383,-4.586 0,-4.355 3.893,-4.682 5.652,-4.682 h 2.458 z m -12.744,5.701 c 0,2.92 0.881,5.838 3.477,7.09 1.158,0.51 2.316,0.51 2.688,0.51 4.264,0 5.699,-3.152 6.58,-5.098 -0.047,2.039 0,3.289 0.139,4.912 0.834,-0.047 1.668,-0.139 3.059,-0.139 0.787,0 1.529,0.092 2.316,0.139 -0.51,-0.787 -0.787,-1.252 -0.928,-3.059 -0.092,-1.76 -0.092,-3.521 -0.092,-5.977 l 0.047,-9.453 c 0,-3.523 -0.928,-6.998 -7.879,-6.998 -4.586,0 -7.273,1.391 -8.617,2.086 0.557,1.02 1.02,1.898 1.436,3.893 1.809,-1.576 4.172,-2.41 6.58,-2.41 3.848,0 3.848,2.549 3.848,6.162 -0.881,-0.045 -1.623,-0.137 -2.875,-0.137 -5.887,10e-4 -9.779,2.268 -9.779,8.479"
         id="path4885"
         inkscape:connector-curvature="0" />
      <path
         style="fill:#c8c8c9;fill-opacity:1"
         i:knockout="Off"
         d="m 108.063,139.268 c 0.047,1.576 0.047,3.244 0.695,4.588 -1.021,-0.092 -1.623,-0.232 -3.521,-0.232 -1.113,0 -1.715,0.094 -2.596,0.232 0.184,-0.602 0.279,-0.834 0.371,-1.623 0.139,-1.064 0.232,-4.633 0.232,-5.885 v -5.004 c 0,-2.178 0,-5.33 -0.141,-6.441 -0.092,-0.787 -0.322,-2.918 -3.012,-2.918 -2.641,0 -3.521,1.945 -3.846,3.521 -0.369,1.621 -0.369,3.383 -0.369,10.24 0.045,5.932 0.045,6.486 0.508,8.109 -0.787,-0.092 -1.76,-0.184 -3.15,-0.184 -1.113,0 -1.854,0.045 -2.779,0.184 0.324,-0.742 0.51,-1.113 0.602,-3.707 0.094,-2.549 0.279,-15.061 -0.141,-18.025 -0.23,-1.809 -0.695,-2.225 -1.203,-2.688 3.754,-0.186 4.957,-0.789 6.117,-1.389 v 4.91 c 0.555,-1.438 1.713,-4.635 6.348,-4.635 5.793,0 5.838,4.217 5.885,6.996 v 13.951"
         id="path4887"
         inkscape:connector-curvature="0" />
      <path
         i:knockout="Off"
         d="m 66.926,111.533 -3.838,3.836 -3.836,-3.836 3.836,-3.836 3.838,3.836"
         id="path4889"
         inkscape:connector-curvature="0"
         style="fill:#d70751" />
    </g>
    <g
       transform="matrix(0.96010542,0,0,0.96010542,68.95534,806.67789)"
       id="g4891"
       style="display:inline;overflow:visible">
      <g
         id="g4893">
        <g
           transform="matrix(0.98323459,0,0,0.98323459,-0.0013766,1.8181967)"
           id="g4895"
           style="fill:#c8c8c9;fill-opacity:1">
          <path
             d="m 51.986,57.297 c -1.797,0.025 0.34,0.926 2.686,1.287 0.648,-0.506 1.236,-1.018 1.76,-1.516 -1.461,0.358 -2.948,0.366 -4.446,0.229"
             id="path4897"
             style="fill:#c8c8c9;fill-opacity:1"
             inkscape:connector-curvature="0" />
          <path
             d="m 61.631,54.893 c 1.07,-1.477 1.85,-3.094 2.125,-4.766 -0.24,1.192 -0.887,2.221 -1.496,3.307 -3.359,2.115 -0.316,-1.256 -0.002,-2.537 -3.612,4.546 -0.496,2.726 -0.627,3.996"
             id="path4899"
             style="fill:#c8c8c9;fill-opacity:1"
             inkscape:connector-curvature="0" />
          <path
             d="m 65.191,45.629 c 0.217,-3.236 -0.637,-2.213 -0.924,-0.978 0.335,0.174 0.6,2.281 0.924,0.978"
             id="path4901"
             style="fill:#c8c8c9;fill-opacity:1"
             inkscape:connector-curvature="0" />
          <path
             d="m 45.172,1.399 c 0.959,0.172 2.072,0.304 1.916,0.533 1.049,-0.23 1.287,-0.442 -1.916,-0.533"
             id="path4903"
             style="fill:#c8c8c9;fill-opacity:1"
             inkscape:connector-curvature="0" />
          <path
             d="M 47.088,1.932 46.41,2.072 47.041,2.016 47.088,1.932"
             id="path4905"
             style="fill:#c8c8c9;fill-opacity:1"
             inkscape:connector-curvature="0" />
          <path
             d="m 76.992,46.856 c 0.107,2.906 -0.85,4.316 -1.713,6.812 l -1.553,0.776 c -1.271,2.468 0.123,1.567 -0.787,3.53 -1.984,1.764 -6.021,5.52 -7.313,5.863 -0.943,-0.021 0.639,-1.113 0.846,-1.541 -2.656,1.824 -2.131,2.738 -6.193,3.846 L 60.16,65.878 C 50.142,70.591 36.226,61.251 36.409,48.507 c -0.107,0.809 -0.304,0.607 -0.526,0.934 -0.517,-6.557 3.028,-13.143 9.007,-15.832 5.848,-2.895 12.704,-1.707 16.893,2.197 -2.301,-3.014 -6.881,-6.209 -12.309,-5.91 -5.317,0.084 -10.291,3.463 -11.951,7.131 -2.724,1.715 -3.04,6.611 -4.227,7.507 -1.597,11.737 3.004,16.808 10.787,22.773 1.225,0.826 0.345,0.951 0.511,1.58 -2.586,-1.211 -4.954,-3.039 -6.901,-5.277 1.033,1.512 2.148,2.982 3.589,4.137 -2.438,-0.826 -5.695,-5.908 -6.646,-6.115 4.203,7.525 17.052,13.197 23.78,10.383 -3.113,0.115 -7.068,0.064 -10.566,-1.229 -1.469,-0.756 -3.467,-2.322 -3.11,-2.615 9.182,3.43 18.667,2.598 26.612,-3.771 2.021,-1.574 4.229,-4.252 4.867,-4.289 -0.961,1.445 0.164,0.695 -0.574,1.971 2.014,-3.248 -0.875,-1.322 2.082,-5.609 l 1.092,1.504 c -0.406,-2.696 3.348,-5.97 2.967,-10.234 0.861,-1.304 0.961,1.403 0.047,4.403 1.268,-3.328 0.334,-3.863 0.66,-6.609 0.352,0.923 0.814,1.904 1.051,2.878 -0.826,-3.216 0.848,-5.416 1.262,-7.285 -0.408,-0.181 -1.275,1.422 -1.473,-2.377 0.029,-1.65 0.459,-0.865 0.625,-1.271 -0.324,-0.186 -1.174,-1.451 -1.691,-3.877 0.375,-0.57 1.002,1.478 1.512,1.562 -0.328,-1.929 -0.893,-3.4 -0.916,-4.88 -1.49,-3.114 -0.527,0.415 -1.736,-1.337 -1.586,-4.947 1.316,-1.148 1.512,-3.396 2.404,3.483 3.775,8.881 4.404,11.117 -0.48,-2.726 -1.256,-5.367 -2.203,-7.922 0.73,0.307 -1.176,-5.609 0.949,-1.691 C 83.519,18.706 76.074,10.902 69.225,7.24 70.063,8.007 71.121,8.97 70.741,9.121 67.335,7.093 67.934,6.935 67.446,6.078 64.671,4.949 64.489,6.169 62.651,6.08 57.421,3.306 56.413,3.601 51.6,1.863 l 0.219,1.023 c -3.465,-1.154 -4.037,0.438 -7.782,0.004 -0.228,-0.178 1.2,-0.644 2.375,-0.815 -3.35,0.442 -3.193,-0.66 -6.471,0.122 0.808,-0.567 1.662,-0.942 2.524,-1.424 -2.732,0.166 -6.522,1.59 -5.352,0.295 -4.456,1.988 -12.37,4.779 -16.811,8.943 l -0.14,-0.933 c -2.035,2.443 -8.874,7.296 -9.419,10.46 l -0.544,0.127 c -1.059,1.793 -1.744,3.825 -2.584,5.67 -1.385,2.36 -2.03,0.908 -1.833,1.278 -2.724,5.523 -4.077,10.164 -5.246,13.97 0.833,1.245 0.02,7.495 0.335,12.497 -1.368,24.704 17.338,48.69 37.785,54.228 2.997,1.072 7.454,1.031 11.245,1.141 -4.473,-1.279 -5.051,-0.678 -9.408,-2.197 -3.143,-1.48 -3.832,-3.17 -6.058,-5.102 l 0.881,1.557 c -4.366,-1.545 -2.539,-1.912 -6.091,-3.037 l 0.941,-1.229 C 28.751,98.334 26.418,96.056 25.78,94.795 l -1.548,0.061 c -1.86,-2.295 -2.851,-3.949 -2.779,-5.23 l -0.5,0.891 c -0.567,-0.973 -6.843,-8.607 -3.587,-6.83 -0.605,-0.553 -1.409,-0.9 -2.281,-2.484 l 0.663,-0.758 c -1.567,-2.016 -2.884,-4.6 -2.784,-5.461 0.836,1.129 1.416,1.34 1.99,1.533 -3.957,-9.818 -4.179,-0.541 -7.176,-9.994 L 8.412,66.472 C 7.926,65.74 7.631,64.945 7.24,64.165 l 0.276,-2.75 C 4.667,58.121 6.719,47.409 7.13,41.534 7.415,39.145 9.508,36.602 11.1,32.614 l -0.97,-0.167 c 1.854,-3.234 10.586,-12.988 14.63,-12.486 1.959,-2.461 -0.389,-0.009 -0.772,-0.629 4.303,-4.453 5.656,-3.146 8.56,-3.947 3.132,-1.859 -2.688,0.725 -1.203,-0.709 5.414,-1.383 3.837,-3.144 10.9,-3.846 0.745,0.424 -1.729,0.655 -2.35,1.205 4.511,-2.207 14.275,-1.705 20.617,1.225 7.359,3.439 15.627,13.605 15.953,23.17 l 0.371,0.1 c -0.188,3.802 0.582,8.199 -0.752,12.238 l 0.908,-1.912"
             id="path4907"
             style="fill:#c8c8c9;fill-opacity:1"
             inkscape:connector-curvature="0" />
          <path
             d="m 32.372,59.764 -0.252,1.26 c 1.181,1.604 2.118,3.342 3.626,4.596 -1.085,-2.118 -1.891,-2.993 -3.374,-5.856"
             id="path4909"
             style="fill:#c8c8c9;fill-opacity:1"
             inkscape:connector-curvature="0" />
          <path
             d="m 35.164,59.654 c -0.625,-0.691 -0.995,-1.523 -1.409,-2.352 0.396,1.457 1.207,2.709 1.962,3.982 l -0.553,-1.63"
             id="path4911"
             style="fill:#c8c8c9;fill-opacity:1"
             inkscape:connector-curvature="0" />
          <path
             d="m 84.568,48.916 -0.264,0.662 c -0.484,3.438 -1.529,6.84 -3.131,9.994 1.77,-3.328 2.915,-6.968 3.395,-10.656"
             id="path4913"
             style="fill:#c8c8c9;fill-opacity:1"
             inkscape:connector-curvature="0" />
          <path
             d="M 45.527,0.537 C 46.742,0.092 48.514,0.293 49.803,0 48.123,0.141 46.451,0.225 44.8,0.438 l 0.727,0.099"
             id="path4915"
             style="fill:#c8c8c9;fill-opacity:1"
             inkscape:connector-curvature="0" />
          <path
             d="m 2.872,23.219 c 0.28,2.592 -1.95,3.598 0.494,1.889 1.31,-2.951 -0.512,-0.815 -0.494,-1.889"
             id="path4917"
             style="fill:#c8c8c9;fill-opacity:1"
             inkscape:connector-curvature="0" />
          <path
             d="M 0,35.215 C 0.563,33.487 0.665,32.449 0.88,31.449 -0.676,33.438 0.164,33.862 0,35.215"
             id="path4919"
             style="fill:#c8c8c9;fill-opacity:1"
             inkscape:connector-curvature="0" />
        </g>
      </g>
    </g>
    <g
       style="font-size:12.10861969px;font-style:normal;font-variant:normal;font-weight:normal;font-stretch:normal;line-height:125%;letter-spacing:0px;word-spacing:0px;fill:#c8c8c9;fill-opacity:1;stroke:none;display:inline;font-family:Ubuntu;-inkscape-font-specification:Ubuntu"
       id="text4921">
      <path
         d="m 62.396673,938.72314 0.58525,0 c 0.58525,-1.53376 0.726518,-1.75575 0.887966,-1.83647 0.524706,0.0202 4.843448,0.0202 4.843448,0.0202 l 0.242172,0.22199 c -0.847602,2.80516 -2.199736,6.33685 -5.973586,12.16916 0.343077,0.26235 0.605431,0.40362 0.807241,0.48435 2.159369,-2.70426 7.184449,-11.68482 7.345897,-14.34872 l -0.242173,-0.22199 c -0.60543,0.0202 -2.11901,0.0404 -3.672948,0.0404 -1.99792,0 -4.076569,-0.0202 -4.460008,-0.0404 l -0.282535,0.28253 c 0.02018,0.36326 0.02018,0.68616 0.02018,0.98888 0,0.64579 -0.04036,1.23104 -0.100905,2.24009"
         style="font-size:20.18103409px;font-family:Prociono;-inkscape-font-specification:Prociono"
         id="path3411" />
      <path
         d="m 74.857831,944.29311 c 0,-0.28254 -0.746699,-1.77594 -1.251224,-1.77594 -0.524707,0 -1.049414,1.04942 -1.049414,1.29159 0,0.16145 0.544888,1.89702 0.968689,1.89702 0.484345,0 1.331949,-0.98887 1.331949,-1.41267"
         style="font-size:20.18103409px;font-family:Prociono;-inkscape-font-specification:Prociono"
         id="path3413" />
      <path
         d="m 76.739397,940.41835 c 0,3.14823 1.453037,5.44888 4.076568,5.44888 2.401541,0 3.794035,-2.54281 3.995845,-3.10788 0.181629,-0.50453 0.403621,-1.65485 0.403621,-2.26028 0,-2.66389 -1.210865,-5.59015 -4.258198,-5.59015 -0.524707,0 -1.715389,0.42381 -2.643716,1.23105 -0.887964,0.78706 -1.57412,2.17955 -1.57412,4.27838 m 1.352129,-0.0404 c 0,-3.67294 1.634665,-3.73349 2.724439,-3.73349 1.412671,0 2.986793,1.41268 2.986793,3.85458 0,2.66389 -0.605433,3.61241 -2.684077,3.61241 -1.311766,0 -3.027155,-1.33195 -3.027155,-3.7335"
         style="font-size:20.18103409px;font-family:Prociono;-inkscape-font-specification:Prociono"
         id="path3415" />
      <path
         d="m 90.678499,935.39327 0.04036,0.66597 c 0.524707,0.0605 0.847604,0.0202 1.130138,0.36326 0.645793,0.72652 1.291587,3.5115 1.957561,5.7516 0.968688,3.16842 0.928328,3.63258 1.715387,3.63258 0.968689,0 0.72652,-0.38344 2.643716,-5.16634 l 0.867784,-2.05847 c 0.322897,1.08978 0.665975,2.42173 1.029233,3.59223 0.94851,3.16842 0.92833,3.63258 1.71539,3.63258 0.96869,0 0.70634,-0.38344 2.64371,-5.16634 2.03829,-5.06544 2.62354,-4.88381 2.62354,-5.18653 0,-0.14126 -0.0404,-0.30271 -0.28254,-0.30271 -0.34307,0 -0.92832,0.0807 -1.53376,0.0807 -0.22199,0 -0.54488,-0.0404 -0.86778,-0.0404 -0.36326,0 -0.68615,0.0605 -0.68615,0.36326 0,0.68615 0.72651,-0.0605 0.72651,0.94851 0,0.32289 -0.0605,1.39249 -2.13919,6.88173 0,0 -1.65484,-5.95341 -2.03828,-7.7697 -0.0404,-0.24217 0.0202,-0.46416 -0.908148,-0.46416 -1.19068,0 -1.493397,0.14126 -1.493397,0.36326 0,0.24217 0.322897,0.60543 0.322897,1.02923 0,0.76688 -0.524709,2.60336 -2.119009,6.84137 0,0 -2.119008,-7.60825 -2.119008,-8.25404 0,-0.24218 -0.201811,-0.30272 -0.363259,-0.30272 -0.221991,0 -1.089778,0.34308 -2.865707,0.56507"
         style="font-size:20.18103409px;font-family:Prociono;-inkscape-font-specification:Prociono"
         id="path3417" />
      <path
         d="m 107.48015,929.90403 0.0404,0.66597 c 1.41267,0 1.47321,10e-6 1.47321,3.95548 0,3.77385 -0.0202,5.67088 -0.0202,9.44473 0,0.52471 -0.28254,0.78706 -1.19068,0.8476 l 0,0.68616 4.11693,0 0,-0.68616 c -1.13014,-0.0605 -1.15032,-0.3229 -1.15032,-1.75575 0,-3.51149 0.0605,-5.8525 0.0605,-5.8525 0.52471,-0.34307 1.87684,-0.80724 2.74462,-0.80724 1.37231,0 1.55394,0.46417 1.55394,2.84553 l 0,3.6124 c 0,1.61448 -0.0404,1.73557 -1.00905,1.95756 l 0,0.68616 3.8344,0 0,-0.68616 c -0.96869,-0.12108 -1.02923,-0.22199 -1.02923,-1.51358 0,-1.63466 0.0605,-3.06751 0.0605,-4.27837 0,-2.62354 -0.30272,-4.09675 -2.28046,-4.09675 -0.82742,0 -2.32082,0.44398 -3.87476,1.31176 l 0.0202,-5.2067 c 0,-0.20181 0.0202,-1.13014 0.0202,-1.31177 0,-0.22199 -0.18163,-0.30272 -0.34308,-0.30272 -0.22199,0 -1.04942,0.30272 -3.02716,0.48435"
         style="font-size:20.18103409px;font-family:Prociono;-inkscape-font-specification:Prociono"
         id="path3419" />
      <path
         d="m 119.03285,940.53943 c 0,2.40154 0.76689,5.26725 4.1573,5.26725 1.75574,0 2.88588,-1.33195 4.05638,-2.52263 l -0.44398,-0.46416 c -0.98887,0.96869 -1.97774,1.43285 -3.20878,1.43285 -2.60335,0 -2.62354,-2.0181 -2.62354,-4.01602 l 4.13711,0 c 0.84761,0 1.59431,-0.0807 2.11901,-0.40362 -0.0202,-1.39249 0.22199,-4.88381 -3.89494,-4.88381 -1.55394,0 -3.47114,1.63466 -3.85457,2.50244 -0.16145,0.38344 -0.44399,1.65485 -0.44399,3.0877 m 1.97774,-1.21086 c 0,-2.11901 0.30272,-3.06752 2.2401,-3.06752 1.81629,0 2.09883,1.77594 2.09883,2.70426 -0.48435,0.34308 -1.53376,0.36326 -3.18861,0.36326 l -1.15032,0"
         style="font-size:20.18103409px;font-family:Prociono;-inkscape-font-specification:Prociono"
         id="path3421" />
      <path
         d="m 128.45329,940.53943 c 0,2.40154 0.76689,5.26725 4.1573,5.26725 1.75574,0 2.88589,-1.33195 4.05638,-2.52263 l -0.44398,-0.46416 c -0.98887,0.96869 -1.97774,1.43285 -3.20878,1.43285 -2.60335,0 -2.62354,-2.0181 -2.62354,-4.01602 l 4.13711,0 c 0.84761,0 1.59431,-0.0807 2.11901,-0.40362 -0.0202,-1.39249 0.22199,-4.88381 -3.89494,-4.88381 -1.55393,0 -3.47113,1.63466 -3.85457,2.50244 -0.16145,0.38344 -0.44399,1.65485 -0.44399,3.0877 m 1.97774,-1.21086 c 0,-2.11901 0.30272,-3.06752 2.2401,-3.06752 1.81629,0 2.09883,1.77594 2.09883,2.70426 -0.48435,0.34308 -1.53376,0.36326 -3.18861,0.36326 l -1.15032,0"
         style="font-size:20.18103409px;font-family:Prociono;-inkscape-font-specification:Prociono"
         id="path3423" />
      <path
         d="m 137.93428,944.97926 0.222,0.52471 c 2.36117,-0.0404 2.96661,-0.0807 5.91304,-0.0807 1.81629,0 1.99792,0.0404 1.99792,0.62562 l 0.88797,0.0605 c 0,-0.10091 -0.0202,-0.20181 -0.0202,-0.3229 0,-0.96869 0.12108,-2.78498 0.24217,-3.89494 l -0.84761,-0.0605 c -0.16144,0.62561 -0.22199,1.10996 -0.4238,1.61448 -0.22199,0.54489 -0.10091,1.02923 -4.66182,1.02923 -0.18162,0 -0.26235,-0.0202 -0.26235,-0.1009 0,-0.14127 0.88797,-2.19974 4.09675,-6.1754 l 0.52471,-0.64579 c 0.68615,-0.82742 1.2714,-1.55394 1.2714,-1.9172 0,-0.22199 -0.12108,-0.4238 -0.58525,-0.4238 0,0 -2.03828,0.0807 -4.29856,0.0807 -2.50244,0 -2.50245,-0.0605 -3.12806,-0.0605 -0.5247,0 -0.34308,0 -0.50452,3.79404 l 0.76688,0 c 0.60543,-2.80517 0.64579,-2.82535 2.84552,-2.82535 l 0.10091,0 c 1.67502,0 2.05846,0.0202 2.05846,0.0807 l -6.19558,8.69803"
         style="font-size:20.18103409px;font-family:Prociono;-inkscape-font-specification:Prociono"
         id="path3425" />
      <path
         d="m 147.67416,935.39327 0.0404,0.66597 c 0.5247,0.0605 0.8476,0.0202 1.15032,0.36326 0.70633,0.80724 2.80516,8.59712 2.80516,9.46491 0,1.15031 -1.43285,2.48226 -1.43285,3.22896 0,0.34308 0.34308,0.58525 1.33195,0.58525 0.68615,0 0,-0.12109 3.59222,-9.06128 2.05846,-5.06544 2.4419,-4.88381 2.4419,-5.18653 0,-0.14126 -0.0605,-0.30271 -0.28253,-0.30271 -0.34308,0 -0.72652,0.0807 -1.33195,0.0807 -0.22199,0 -0.56507,-0.0404 -0.86778,-0.0404 -0.36326,0 -0.68616,0.0605 -0.68616,0.36326 0,0.68615 0.72652,0.0605 0.72652,0.94851 0,0.32289 -0.0807,1.39249 -2.13919,6.88173 0,0 -2.11901,-7.60825 -2.11901,-8.25404 0,-0.24218 -0.18163,-0.30272 -0.34308,-0.30272 -0.22199,0 -1.10995,0.34308 -2.88588,0.56507"
         style="font-size:20.18103409px;font-family:Prociono;-inkscape-font-specification:Prociono"
         id="path3427" />
    </g>
    <text
       sodipodi:linespacing="125%"
       id="countdown-days-portrait"
       y="1004.9641"
       x="109.20894"
       style="font-size:12.10861969px;font-style:normal;font-variant:normal;font-weight:normal;font-stretch:normal;line-height:125%;letter-spacing:0px;word-spacing:0px;fill:#c8c8c9;fill-opacity:1;stroke:none;display:inline;font-family:Ubuntu;-inkscape-font-specification:Ubuntu"
       xml:space="preserve"
       inkscape:label="#text4925"><tspan
         id="tspan4927"
         style="font-size:40px;font-style:normal;font-variant:normal;font-weight:bold;font-stretch:normal;text-align:center;text-anchor:middle;fill:#c8c8c9;fill-opacity:1;font-family:Monospace;-inkscape-font-specification:Monospace Bold"
         y="1004.9641"
         x="109.20894"
         sodipodi:role="line">55</tspan></text>
    <text
       xml:space="preserve"
       style="font-size:12.10861969px;font-style:normal;font-variant:normal;font-weight:normal;font-stretch:normal;line-height:125%;letter-spacing:0px;word-spacing:0px;fill:#c8c8c9;fill-opacity:1;stroke:none;display:inline;font-family:Ubuntu;-inkscape-font-specification:Ubuntu"
       x="109.20894"
       y="1004.9641"
       id="text4935"
       sodipodi:linespacing="125%"><tspan
         sodipodi:role="line"
         id="tspan4937"
         x="109.20894"
         y="1004.9641"
         style="font-size:40px;font-style:normal;font-variant:normal;font-weight:bold;font-stretch:normal;text-align:center;text-anchor:middle;fill:#c8c8c9;fill-opacity:1;font-family:Monospace;-inkscape-font-specification:Monospace Bold" /><tspan
         sodipodi:role="line"
         x="109.20894"
         y="1035.0291"
         style="font-size:20px;font-style:normal;font-variant:normal;font-weight:normal;font-stretch:normal;text-align:center;text-anchor:middle;fill:#c8c8c9;fill-opacity:1;font-family:Monospace;-inkscape-font-specification:Monospace"
         id="tspan4939">days left</tspan></text>
  </g>
</svg>
