<?xml version="1.0" encoding="UTF-8" standalone="no"?>
<!-- Created with Inkscape (http://www.inkscape.org/) -->

<svg
   xmlns:i="http://ns.adobe.com/AdobeIllustrator/10.0/"
   xmlns:dc="http://purl.org/dc/elements/1.1/"
   xmlns:cc="http://creativecommons.org/ns#"
   xmlns:rdf="http://www.w3.org/1999/02/22-rdf-syntax-ns#"
   xmlns:svg="http://www.w3.org/2000/svg"
   xmlns="http://www.w3.org/2000/svg"
   xmlns:xlink="http://www.w3.org/1999/xlink"
   xmlns:sodipodi="http://sodipodi.sourceforge.net/DTD/sodipodi-0.dtd"
   xmlns:inkscape="http://www.inkscape.org/namespaces/inkscape"
   width="357"
   height="271"
   id="svg2"
   version="1.1"
   inkscape:version="0.48.3.1 r9886"
   sodipodi:docname="RC_landscape.svg">
  <defs
     id="defs4">
    <radialGradient
       r="960"
       fy="512.36218"
       fx="960"
       cy="512.36218"
       cx="960"
       gradientTransform="matrix(0.23192995,0,0,0.22020242,-559.86463,243.25503)"
       gradientUnits="userSpaceOnUse"
       id="radialGradient4660"
       xlink:href="#linearGradient3755-2-4"
       inkscape:collect="always" />
    <linearGradient
       id="linearGradient3755-2-4">
      <stop
         style="stop-color:#8f9db3;stop-opacity:1;"
         offset="0"
         id="stop3757-00-8" />
      <stop
         style="stop-color:#161b2b;stop-opacity:1;"
         offset="1"
         id="stop3759-3-9" />
    </linearGradient>
    <radialGradient
       r="960"
       fy="512.36218"
       fx="960"
       cy="512.36218"
       cx="960"
       gradientTransform="matrix(0.23192995,0,0,0.22020242,-2.6527129,756.68128)"
       gradientUnits="userSpaceOnUse"
       id="radialGradient4990"
       xlink:href="#linearGradient3755-2-4"
       inkscape:collect="always" />
    <radialGradient
       inkscape:collect="always"
       xlink:href="#linearGradient3755-2-4"
       id="radialGradient3095"
       gradientUnits="userSpaceOnUse"
       gradientTransform="matrix(0.23192995,0,0,0.22020242,-2.6527129,756.68128)"
       cx="960"
       cy="512.36218"
       fx="960"
       fy="512.36218"
       r="960" />
    <radialGradient
       inkscape:collect="always"
       xlink:href="#linearGradient3755-2-4"
       id="radialGradient3128"
       gradientUnits="userSpaceOnUse"
       gradientTransform="matrix(0.23192995,0,0,0.22020242,-44.152717,804.03845)"
       cx="960"
       cy="512.36218"
       fx="960"
       fy="512.36218"
       r="960" />
  </defs>
  <sodipodi:namedview
     id="base"
     pagecolor="#ffffff"
     bordercolor="#666666"
     borderopacity="1.0"
     inkscape:pageopacity="0.0"
     inkscape:pageshadow="2"
     inkscape:zoom="0.7"
     inkscape:cx="288.68945"
     inkscape:cy="188.91084"
     inkscape:document-units="px"
     inkscape:current-layer="layer1"
     showgrid="false"
     inkscape:window-width="1364"
     inkscape:window-height="736"
     inkscape:window-x="0"
     inkscape:window-y="20"
     inkscape:window-maximized="0" />
  <metadata
     id="metadata7">
    <rdf:RDF>
      <cc:Work
         rdf:about="">
        <dc:format>image/svg+xml</dc:format>
        <dc:type
           rdf:resource="http://purl.org/dc/dcmitype/StillImage" />
        <dc:title />
      </cc:Work>
    </rdf:RDF>
  </metadata>
  <g
     inkscape:label="Layer 1"
     inkscape:groupmode="layer"
     id="layer1"
     transform="translate(0,-781.36218)">
    <rect
       y="781.21808"
       x="-0.35327166"
       height="271.28821"
       width="357.70654"
       id="rect3533"
       style="fill:url(#radialGradient3128);fill-opacity:1;stroke:none;display:inline" />
    <g
       id="g3535"
       transform="matrix(1.7783585,0,0,1.7783585,139.94259,621.69422)"
       style="display:inline">
      <path
         style="fill:#c8c8c9;fill-opacity:1"
         i:knockout="Off"
         d="m 13.437,125.506 c -0.045,0.047 -0.045,7.506 -0.138,9.453 -0.092,1.574 -0.232,4.957 -3.568,4.957 -3.429,0 -4.263,-3.939 -4.541,-5.652 -0.324,-1.9 -0.324,-3.477 -0.324,-4.17 0,-2.225 0.139,-8.436 5.375,-8.436 1.576,0 2.456,0.465 3.151,0.834 l 0.045,3.014 z M 0,130.975 c 0,13.066 6.951,13.066 7.97,13.066 2.873,0 4.727,-1.576 5.514,-4.309 l 0.093,4.123 c 0.881,-0.047 1.761,-0.139 3.197,-0.139 0.51,0 0.926,0 1.298,0.047 0.371,0 0.741,0.045 1.158,0.092 -0.741,-1.482 -1.297,-4.818 -1.297,-12.049 0,-7.043 0,-18.951 0.602,-22.566 -1.667,0.789 -3.105,1.299 -6.256,1.576 1.251,1.344 1.251,2.039 1.251,8.154 -0.879,-0.277 -1.992,-0.602 -3.892,-0.602 C 1.344,118.369 0,125.598 0,130.975"
         id="path3537"
         inkscape:connector-curvature="0" />
      <path
         style="fill:#c8c8c9;fill-opacity:1"
         i:knockout="Off"
         d="m 25.13,128.609 c 0.047,-3.846 0.835,-7.275 4.124,-7.275 3.615,0 3.891,3.984 3.799,7.275 H 25.13 z m 12.51,0.465 c 0,-5.422 -1.065,-10.752 -7.923,-10.752 -9.452,0 -9.452,10.475 -9.452,12.697 0,9.406 4.216,13.113 11.306,13.113 3.149,0 4.68,-0.461 5.514,-0.695 -0.046,-1.668 0.185,-2.734 0.465,-4.17 -0.975,0.604 -2.226,1.391 -5.006,1.391 -7.229,0 -7.322,-6.582 -7.322,-8.852 H 37.55 l 0.09,-2.732"
         id="path3539"
         inkscape:connector-curvature="0" />
      <path
         style="fill:#c8c8c9;fill-opacity:1"
         i:knockout="Off"
         d="m 52.715,131.066 c 0,4.309 -0.787,10.102 -6.162,10.102 -0.742,0 -1.668,-0.141 -2.27,-0.279 -0.093,-1.668 -0.093,-4.541 -0.093,-7.877 0,-3.986 0.416,-6.068 0.742,-7.09 0.972,-3.289 3.15,-3.334 3.566,-3.334 3.522,0 4.217,4.865 4.217,8.478 z m -13.298,5.051 c 0,3.43 0,5.375 -0.556,6.857 1.9,0.742 4.262,1.158 7.09,1.158 1.807,0 7.043,0 9.869,-5.791 1.344,-2.688 1.807,-6.303 1.807,-9.037 0,-1.668 -0.186,-5.328 -1.529,-7.646 -1.296,-2.176 -3.382,-3.289 -5.605,-3.289 -4.449,0 -5.746,3.707 -6.44,5.607 0,-2.363 0.045,-10.611 0.415,-14.828 -3.011,1.391 -4.866,1.621 -6.857,1.807 1.807,0.74 1.807,3.801 1.807,13.764 v 11.398"
         id="path3541"
         inkscape:connector-curvature="0" />
      <path
         style="fill:#c8c8c9;fill-opacity:1"
         i:knockout="Off"
         d="m 66.535,143.855 c -0.928,-0.139 -1.578,-0.232 -2.922,-0.232 -1.48,0 -2.502,0.094 -3.566,0.232 0.463,-0.881 0.648,-1.299 0.787,-4.309 0.186,-4.125 0.232,-15.154 -0.092,-17.471 -0.232,-1.762 -0.648,-2.039 -1.297,-2.502 3.799,-0.371 4.865,-0.648 6.625,-1.482 -0.369,2.037 -0.418,3.059 -0.418,6.162 -0.091,15.989 -0.138,17.702 0.883,19.602"
         id="path3543"
         inkscape:connector-curvature="0" />
      <path
         style="fill:#c8c8c9;fill-opacity:1"
         i:knockout="Off"
         d="m 81.373,130.74 c -0.092,2.92 -0.139,4.959 -0.928,6.58 -0.973,2.086 -2.594,2.688 -3.799,2.688 -2.783,0 -3.383,-2.316 -3.383,-4.586 0,-4.355 3.893,-4.682 5.652,-4.682 h 2.458 z m -12.744,5.701 c 0,2.92 0.881,5.838 3.477,7.09 1.158,0.51 2.316,0.51 2.688,0.51 4.264,0 5.699,-3.152 6.58,-5.098 -0.047,2.039 0,3.289 0.139,4.912 0.834,-0.047 1.668,-0.139 3.059,-0.139 0.787,0 1.529,0.092 2.316,0.139 -0.51,-0.787 -0.787,-1.252 -0.928,-3.059 -0.092,-1.76 -0.092,-3.521 -0.092,-5.977 l 0.047,-9.453 c 0,-3.523 -0.928,-6.998 -7.879,-6.998 -4.586,0 -7.273,1.391 -8.617,2.086 0.557,1.02 1.02,1.898 1.436,3.893 1.809,-1.576 4.172,-2.41 6.58,-2.41 3.848,0 3.848,2.549 3.848,6.162 -0.881,-0.045 -1.623,-0.137 -2.875,-0.137 -5.887,10e-4 -9.779,2.268 -9.779,8.479"
         id="path3545"
         inkscape:connector-curvature="0" />
      <path
         style="fill:#c8c8c9;fill-opacity:1"
         i:knockout="Off"
         d="m 108.063,139.268 c 0.047,1.576 0.047,3.244 0.695,4.588 -1.021,-0.092 -1.623,-0.232 -3.521,-0.232 -1.113,0 -1.715,0.094 -2.596,0.232 0.184,-0.602 0.279,-0.834 0.371,-1.623 0.139,-1.064 0.232,-4.633 0.232,-5.885 v -5.004 c 0,-2.178 0,-5.33 -0.141,-6.441 -0.092,-0.787 -0.322,-2.918 -3.012,-2.918 -2.641,0 -3.521,1.945 -3.846,3.521 -0.369,1.621 -0.369,3.383 -0.369,10.24 0.045,5.932 0.045,6.486 0.508,8.109 -0.787,-0.092 -1.76,-0.184 -3.15,-0.184 -1.113,0 -1.854,0.045 -2.779,0.184 0.324,-0.742 0.51,-1.113 0.602,-3.707 0.094,-2.549 0.279,-15.061 -0.141,-18.025 -0.23,-1.809 -0.695,-2.225 -1.203,-2.688 3.754,-0.186 4.957,-0.789 6.117,-1.389 v 4.91 c 0.555,-1.438 1.713,-4.635 6.348,-4.635 5.793,0 5.838,4.217 5.885,6.996 v 13.951"
         id="path3547"
         inkscape:connector-curvature="0" />
      <path
         i:knockout="Off"
         d="m 66.926,111.533 -3.838,3.836 -3.836,-3.836 3.836,-3.836 3.838,3.836"
         id="path3549"
         inkscape:connector-curvature="0"
         style="fill:#d70751" />
    </g>
    <g
       transform="matrix(0.96010542,0,0,0.96010542,23.725583,803.47244)"
       id="g3551"
       style="display:inline;overflow:visible">
      <g
         id="g3553">
        <g
           transform="matrix(0.98323459,0,0,0.98323459,-0.0013766,1.8181967)"
           id="g3555"
           style="fill:#c8c8c9;fill-opacity:1">
          <path
             d="m 51.986,57.297 c -1.797,0.025 0.34,0.926 2.686,1.287 0.648,-0.506 1.236,-1.018 1.76,-1.516 -1.461,0.358 -2.948,0.366 -4.446,0.229"
             id="path3557"
             style="fill:#c8c8c9;fill-opacity:1"
             inkscape:connector-curvature="0" />
          <path
             d="m 61.631,54.893 c 1.07,-1.477 1.85,-3.094 2.125,-4.766 -0.24,1.192 -0.887,2.221 -1.496,3.307 -3.359,2.115 -0.316,-1.256 -0.002,-2.537 -3.612,4.546 -0.496,2.726 -0.627,3.996"
             id="path3559"
             style="fill:#c8c8c9;fill-opacity:1"
             inkscape:connector-curvature="0" />
          <path
             d="m 65.191,45.629 c 0.217,-3.236 -0.637,-2.213 -0.924,-0.978 0.335,0.174 0.6,2.281 0.924,0.978"
             id="path3561"
             style="fill:#c8c8c9;fill-opacity:1"
             inkscape:connector-curvature="0" />
          <path
             d="m 45.172,1.399 c 0.959,0.172 2.072,0.304 1.916,0.533 1.049,-0.23 1.287,-0.442 -1.916,-0.533"
             id="path3563"
             style="fill:#c8c8c9;fill-opacity:1"
             inkscape:connector-curvature="0" />
          <path
             d="M 47.088,1.932 46.41,2.072 47.041,2.016 47.088,1.932"
             id="path3565"
             style="fill:#c8c8c9;fill-opacity:1"
             inkscape:connector-curvature="0" />
          <path
             d="m 76.992,46.856 c 0.107,2.906 -0.85,4.316 -1.713,6.812 l -1.553,0.776 c -1.271,2.468 0.123,1.567 -0.787,3.53 -1.984,1.764 -6.021,5.52 -7.313,5.863 -0.943,-0.021 0.639,-1.113 0.846,-1.541 -2.656,1.824 -2.131,2.738 -6.193,3.846 L 60.16,65.878 C 50.142,70.591 36.226,61.251 36.409,48.507 c -0.107,0.809 -0.304,0.607 -0.526,0.934 -0.517,-6.557 3.028,-13.143 9.007,-15.832 5.848,-2.895 12.704,-1.707 16.893,2.197 -2.301,-3.014 -6.881,-6.209 -12.309,-5.91 -5.317,0.084 -10.291,3.463 -11.951,7.131 -2.724,1.715 -3.04,6.611 -4.227,7.507 -1.597,11.737 3.004,16.808 10.787,22.773 1.225,0.826 0.345,0.951 0.511,1.58 -2.586,-1.211 -4.954,-3.039 -6.901,-5.277 1.033,1.512 2.148,2.982 3.589,4.137 -2.438,-0.826 -5.695,-5.908 -6.646,-6.115 4.203,7.525 17.052,13.197 23.78,10.383 -3.113,0.115 -7.068,0.064 -10.566,-1.229 -1.469,-0.756 -3.467,-2.322 -3.11,-2.615 9.182,3.43 18.667,2.598 26.612,-3.771 2.021,-1.574 4.229,-4.252 4.867,-4.289 -0.961,1.445 0.164,0.695 -0.574,1.971 2.014,-3.248 -0.875,-1.322 2.082,-5.609 l 1.092,1.504 c -0.406,-2.696 3.348,-5.97 2.967,-10.234 0.861,-1.304 0.961,1.403 0.047,4.403 1.268,-3.328 0.334,-3.863 0.66,-6.609 0.352,0.923 0.814,1.904 1.051,2.878 -0.826,-3.216 0.848,-5.416 1.262,-7.285 -0.408,-0.181 -1.275,1.422 -1.473,-2.377 0.029,-1.65 0.459,-0.865 0.625,-1.271 -0.324,-0.186 -1.174,-1.451 -1.691,-3.877 0.375,-0.57 1.002,1.478 1.512,1.562 -0.328,-1.929 -0.893,-3.4 -0.916,-4.88 -1.49,-3.114 -0.527,0.415 -1.736,-1.337 -1.586,-4.947 1.316,-1.148 1.512,-3.396 2.404,3.483 3.775,8.881 4.404,11.117 -0.48,-2.726 -1.256,-5.367 -2.203,-7.922 0.73,0.307 -1.176,-5.609 0.949,-1.691 C 83.519,18.706 76.074,10.902 69.225,7.24 70.063,8.007 71.121,8.97 70.741,9.121 67.335,7.093 67.934,6.935 67.446,6.078 64.671,4.949 64.489,6.169 62.651,6.08 57.421,3.306 56.413,3.601 51.6,1.863 l 0.219,1.023 c -3.465,-1.154 -4.037,0.438 -7.782,0.004 -0.228,-0.178 1.2,-0.644 2.375,-0.815 -3.35,0.442 -3.193,-0.66 -6.471,0.122 0.808,-0.567 1.662,-0.942 2.524,-1.424 -2.732,0.166 -6.522,1.59 -5.352,0.295 -4.456,1.988 -12.37,4.779 -16.811,8.943 l -0.14,-0.933 c -2.035,2.443 -8.874,7.296 -9.419,10.46 l -0.544,0.127 c -1.059,1.793 -1.744,3.825 -2.584,5.67 -1.385,2.36 -2.03,0.908 -1.833,1.278 -2.724,5.523 -4.077,10.164 -5.246,13.97 0.833,1.245 0.02,7.495 0.335,12.497 -1.368,24.704 17.338,48.69 37.785,54.228 2.997,1.072 7.454,1.031 11.245,1.141 -4.473,-1.279 -5.051,-0.678 -9.408,-2.197 -3.143,-1.48 -3.832,-3.17 -6.058,-5.102 l 0.881,1.557 c -4.366,-1.545 -2.539,-1.912 -6.091,-3.037 l 0.941,-1.229 C 28.751,98.334 26.418,96.056 25.78,94.795 l -1.548,0.061 c -1.86,-2.295 -2.851,-3.949 -2.779,-5.23 l -0.5,0.891 c -0.567,-0.973 -6.843,-8.607 -3.587,-6.83 -0.605,-0.553 -1.409,-0.9 -2.281,-2.484 l 0.663,-0.758 c -1.567,-2.016 -2.884,-4.6 -2.784,-5.461 0.836,1.129 1.416,1.34 1.99,1.533 -3.957,-9.818 -4.179,-0.541 -7.176,-9.994 L 8.412,66.472 C 7.926,65.74 7.631,64.945 7.24,64.165 l 0.276,-2.75 C 4.667,58.121 6.719,47.409 7.13,41.534 7.415,39.145 9.508,36.602 11.1,32.614 l -0.97,-0.167 c 1.854,-3.234 10.586,-12.988 14.63,-12.486 1.959,-2.461 -0.389,-0.009 -0.772,-0.629 4.303,-4.453 5.656,-3.146 8.56,-3.947 3.132,-1.859 -2.688,0.725 -1.203,-0.709 5.414,-1.383 3.837,-3.144 10.9,-3.846 0.745,0.424 -1.729,0.655 -2.35,1.205 4.511,-2.207 14.275,-1.705 20.617,1.225 7.359,3.439 15.627,13.605 15.953,23.17 l 0.371,0.1 c -0.188,3.802 0.582,8.199 -0.752,12.238 l 0.908,-1.912"
             id="path3567"
             style="fill:#c8c8c9;fill-opacity:1"
             inkscape:connector-curvature="0" />
          <path
             d="m 32.372,59.764 -0.252,1.26 c 1.181,1.604 2.118,3.342 3.626,4.596 -1.085,-2.118 -1.891,-2.993 -3.374,-5.856"
             id="path3569"
             style="fill:#c8c8c9;fill-opacity:1"
             inkscape:connector-curvature="0" />
          <path
             d="m 35.164,59.654 c -0.625,-0.691 -0.995,-1.523 -1.409,-2.352 0.396,1.457 1.207,2.709 1.962,3.982 l -0.553,-1.63"
             id="path3571"
             style="fill:#c8c8c9;fill-opacity:1"
             inkscape:connector-curvature="0" />
          <path
             d="m 84.568,48.916 -0.264,0.662 c -0.484,3.438 -1.529,6.84 -3.131,9.994 1.77,-3.328 2.915,-6.968 3.395,-10.656"
             id="path3573"
             style="fill:#c8c8c9;fill-opacity:1"
             inkscape:connector-curvature="0" />
          <path
             d="M 45.527,0.537 C 46.742,0.092 48.514,0.293 49.803,0 48.123,0.141 46.451,0.225 44.8,0.438 l 0.727,0.099"
             id="path3575"
             style="fill:#c8c8c9;fill-opacity:1"
             inkscape:connector-curvature="0" />
          <path
             d="m 2.872,23.219 c 0.28,2.592 -1.95,3.598 0.494,1.889 1.31,-2.951 -0.512,-0.815 -0.494,-1.889"
             id="path3577"
             style="fill:#c8c8c9;fill-opacity:1"
             inkscape:connector-curvature="0" />
          <path
             d="M 0,35.215 C 0.563,33.487 0.665,32.449 0.88,31.449 -0.676,33.438 0.164,33.862 0,35.215"
             id="path3579"
             style="fill:#c8c8c9;fill-opacity:1"
             inkscape:connector-curvature="0" />
        </g>
      </g>
    </g>
    <g
       style="font-size:16.93252182px;font-style:normal;font-variant:normal;font-weight:normal;font-stretch:normal;line-height:125%;letter-spacing:0px;word-spacing:0px;fill:#c8c8c9;fill-opacity:1;stroke:none;display:inline;font-family:Ubuntu;-inkscape-font-specification:Ubuntu"
       id="text3581">
      <path
         d="m 170.0801,902.78658 0.8184,0 c 0.81841,-2.14478 1.01596,-2.45521 1.24172,-2.56809 0.73374,0.0282 6.77301,0.0282 6.77301,0.0282 l 0.33865,0.31043 c -1.18527,3.92269 -3.07608,8.86136 -8.35338,17.01718 0.47976,0.36687 0.84663,0.56442 1.12884,0.6773 3.01963,-3.78159 10.04663,-16.33989 10.2724,-20.06504 l -0.33865,-0.31043 c -0.84663,0.0282 -2.9632,0.0564 -5.1362,0.0564 -2.79387,0 -5.70062,-0.0282 -6.23682,-0.0564 l -0.39509,0.39509 c 0.0282,0.50798 0.0282,0.95952 0.0282,1.38283 0,0.90306 -0.0564,1.72147 -0.1411,3.13251"
         style="font-size:28.22087479px;font-family:Prociono;-inkscape-font-specification:Prociono"
         id="path3029" />
      <path
         d="m 187.50561,910.57555 c 0,-0.3951 -1.04418,-2.48344 -1.7497,-2.48344 -0.73374,0 -1.46748,1.46749 -1.46748,1.80614 0,0.22576 0.76196,2.65276 1.3546,2.65276 0.6773,0 1.86258,-1.38283 1.86258,-1.97546"
         style="font-size:28.22087479px;font-family:Prociono;-inkscape-font-specification:Prociono"
         id="path3031" />
      <path
         d="m 190.13676,905.15714 c 0,4.40245 2.03191,7.61963 5.70062,7.61963 3.35828,0 5.30552,-3.55583 5.58773,-4.34601 0.25399,-0.70552 0.56442,-2.31411 0.56442,-3.16074 0,-3.72515 -1.69326,-7.81718 -5.95461,-7.81718 -0.73374,0 -2.39877,0.59264 -3.69693,1.72147 -1.24172,1.10062 -2.20123,3.04786 -2.20123,5.98283 m 1.8908,-0.0564 c 0,-5.1362 2.28589,-5.22087 3.80982,-5.22087 1.97546,0 4.17669,1.97547 4.17669,5.39019 0,3.72515 -0.84663,5.05154 -3.75338,5.05154 -1.83435,0 -4.23313,-1.86258 -4.23313,-5.22086"
         style="font-size:28.22087479px;font-family:Prociono;-inkscape-font-specification:Prociono"
         id="path3033" />
      <path
         d="m 209.62901,898.13014 0.0564,0.93129 c 0.73374,0.0847 1.18527,0.0282 1.58037,0.50798 0.90306,1.01595 1.80613,4.91043 2.73742,8.04294 1.3546,4.43068 1.29816,5.07976 2.39878,5.07976 1.3546,0 1.01595,-0.5362 3.69693,-7.22454 l 1.2135,-2.87853 c 0.45153,1.52392 0.93129,3.38651 1.43926,5.02331 1.32638,4.43068 1.29816,5.07976 2.39878,5.07976 1.3546,0 0.98773,-0.5362 3.69693,-7.22454 2.85031,-7.08343 3.66871,-6.82945 3.66871,-7.25277 0,-0.19754 -0.0564,-0.42331 -0.39509,-0.42331 -0.47975,0 -1.29816,0.11288 -2.14478,0.11288 -0.31043,0 -0.76197,-0.0564 -1.2135,-0.0564 -0.50798,0 -0.95951,0.0847 -0.95951,0.50798 0,0.95951 1.01595,-0.0847 1.01595,1.32638 0,0.45153 -0.0847,1.94725 -2.99141,9.62332 0,0 -2.31411,-8.32516 -2.85031,-10.86504 -0.0564,-0.33865 0.0282,-0.64908 -1.26994,-0.64908 -1.66503,0 -2.08834,0.19755 -2.08834,0.50798 0,0.33865 0.45153,0.84662 0.45153,1.43926 0,1.07239 -0.73375,3.6405 -2.96319,9.56688 0,0 -2.96319,-10.63927 -2.96319,-11.54234 0,-0.33865 -0.28221,-0.42331 -0.50798,-0.42331 -0.31043,0 -1.52393,0.47975 -4.00736,0.79018"
         style="font-size:28.22087479px;font-family:Prociono;-inkscape-font-specification:Prociono"
         id="path3035" />
      <path
         d="m 233.12421,890.45406 0.0564,0.93129 c 1.97546,0 2.06012,10e-6 2.06012,5.53129 0,5.2773 -0.0282,7.93007 -0.0282,13.20737 0,0.73374 -0.39509,1.10062 -1.66503,1.18528 l 0,0.95951 5.75706,0 0,-0.95951 c -1.58037,-0.0847 -1.60859,-0.45154 -1.60859,-2.45522 0,-4.91042 0.0847,-8.18405 0.0847,-8.18405 0.73374,-0.47976 2.62455,-1.12884 3.83804,-1.12884 1.91902,0 2.17301,0.64909 2.17301,3.97915 l 0,5.05153 c 0,2.25767 -0.0564,2.427 -1.41104,2.73743 l 0,0.95951 5.36196,0 0,-0.95951 c -1.3546,-0.16933 -1.43926,-0.31043 -1.43926,-2.11657 0,-2.28589 0.0847,-4.28957 0.0847,-5.98282 0,-3.66871 -0.42332,-5.72884 -3.18896,-5.72884 -1.15705,0 -3.2454,0.62086 -5.41841,1.83436 l 0.0282,-7.28099 c 0,-0.28221 0.0282,-1.58037 0.0282,-1.83436 0,-0.31042 -0.25398,-0.42331 -0.47975,-0.42331 -0.31043,0 -1.46749,0.42331 -4.23313,0.6773"
         style="font-size:28.22087479px;font-family:Prociono;-inkscape-font-specification:Prociono"
         id="path3037" />
      <path
         d="m 249.27933,905.32646 c 0,3.35828 1.0724,7.36565 5.81351,7.36565 2.45521,0 4.03558,-1.86258 5.67239,-3.52761 l -0.62086,-0.64908 c -1.38282,1.3546 -2.76565,2.00368 -4.48712,2.00368 -3.64049,0 -3.66871,-2.82209 -3.66871,-5.61595 l 5.78528,0 c 1.18527,0 2.22945,-0.11288 2.96319,-0.56442 -0.0282,-1.94724 0.31042,-6.82945 -5.44663,-6.82945 -2.173,0 -4.85399,2.28589 -5.39019,3.49939 -0.22576,0.5362 -0.62086,2.31411 -0.62086,4.31779 m 2.76565,-1.69325 c 0,-2.96319 0.42332,-4.28957 3.13252,-4.28957 2.53987,0 2.93497,2.48344 2.93497,3.7816 -0.6773,0.47975 -2.14479,0.50797 -4.4589,0.50797 l -1.60859,0"
         style="font-size:28.22087479px;font-family:Prociono;-inkscape-font-specification:Prociono"
         id="path3039" />
      <path
         d="m 262.45275,905.32646 c 0,3.35828 1.0724,7.36565 5.8135,7.36565 2.45521,0 4.03559,-1.86258 5.6724,-3.52761 l -0.62086,-0.64908 c -1.38282,1.3546 -2.76565,2.00368 -4.48712,2.00368 -3.64049,0 -3.66871,-2.82209 -3.66871,-5.61595 l 5.78527,0 c 1.18528,0 2.22945,-0.11288 2.9632,-0.56442 -0.0282,-1.94724 0.31042,-6.82945 -5.44663,-6.82945 -2.17301,0 -4.85399,2.28589 -5.39019,3.49939 -0.22577,0.5362 -0.62086,2.31411 -0.62086,4.31779 m 2.76565,-1.69325 c 0,-2.96319 0.42331,-4.28957 3.13251,-4.28957 2.53988,0 2.93497,2.48344 2.93497,3.7816 -0.6773,0.47975 -2.14478,0.50797 -4.45889,0.50797 l -1.60859,0"
         style="font-size:28.22087479px;font-family:Prociono;-inkscape-font-specification:Prociono"
         id="path3041" />
      <path
         d="m 275.71083,911.53506 0.31043,0.73374 c 3.30184,-0.0564 4.14847,-0.11288 8.26872,-0.11288 2.53987,0 2.79386,0.0564 2.79386,0.87484 l 1.24172,0.0847 c 0,-0.14111 -0.0282,-0.28221 -0.0282,-0.45154 0,-1.3546 0.16933,-3.89448 0.33865,-5.44663 l -1.18528,-0.0847 c -0.22576,0.87485 -0.31043,1.55215 -0.59263,2.25767 -0.31043,0.76196 -0.14112,1.43926 -6.51903,1.43926 -0.25398,0 -0.36687,-0.0282 -0.36687,-0.1411 0,-0.19755 1.24172,-3.07608 5.72884,-8.63559 l 0.73374,-0.90307 c 0.95951,-1.15705 1.77792,-2.173 1.77792,-2.68098 0,-0.31043 -0.16933,-0.59264 -0.81841,-0.59264 0,0 -2.85031,0.11289 -6.01104,0.11289 -3.49939,0 -3.49939,-0.0847 -4.37424,-0.0847 -0.73374,0 -0.47975,10e-6 -0.70552,5.30553 l 1.07239,0 c 0.84663,-3.9227 0.90307,-3.95092 3.97914,-3.95092 l 0.14111,0 c 2.34233,0 2.87853,0.0282 2.87853,0.11288 l -8.66381,12.1632"
         style="font-size:28.22087479px;font-family:Prociono;-inkscape-font-specification:Prociono"
         id="path3043" />
      <path
         d="m 289.33093,898.13014 0.0564,0.93129 c 0.73375,0.0847 1.18528,0.0282 1.60859,0.50798 0.98773,1.12883 3.92271,12.02209 3.92271,13.23559 0,1.60858 -2.00369,3.47116 -2.00369,4.51534 0,0.47975 0.47976,0.8184 1.86258,0.8184 0.95951,0 1e-5,-0.16934 5.02332,-12.67117 2.87852,-7.08343 3.41472,-6.82945 3.41472,-7.25277 0,-0.19754 -0.0847,-0.42331 -0.39509,-0.42331 -0.47975,0 -1.01595,0.11288 -1.86258,0.11288 -0.31043,0 -0.79018,-0.0564 -1.21349,-0.0564 -0.50798,0 -0.95951,0.0847 -0.95951,0.50798 0,0.95951 1.01595,0.0847 1.01595,1.32638 0,0.45153 -0.11289,1.94725 -2.99142,9.62332 0,0 -2.96319,-10.63927 -2.96319,-11.54234 0,-0.33865 -0.25399,-0.42331 -0.47975,-0.42331 -0.31043,0 -1.55215,0.47975 -4.03559,0.79018"
         style="font-size:28.22087479px;font-family:Prociono;-inkscape-font-specification:Prociono"
         id="path3045" />
    </g>
    <text
       sodipodi:linespacing="125%"
       id="countdown-RC_landscape"
       y="1007.8905"
       x="177.70895"
       style="font-size:12.10861969px;font-style:normal;font-variant:normal;font-weight:normal;font-stretch:normal;line-height:125%;letter-spacing:0px;word-spacing:0px;fill:#c8c8c9;fill-opacity:1;stroke:none;display:inline;font-family:Ubuntu;-inkscape-font-specification:Ubuntu"
       xml:space="preserve"
       inkscape:label="#text3585"><tspan
         id="tspan3589"
         style="font-size:50px;font-style:normal;font-variant:normal;font-weight:bold;font-stretch:normal;text-align:center;text-anchor:middle;fill:#c8c8c9;fill-opacity:1;font-family:Monospace;-inkscape-font-specification:Monospace Bold"
         y="1007.8905"
         x="177.70895"
         sodipodi:role="line">124</tspan></text>
    <text
       xml:space="preserve"
       style="font-size:12.10861969px;font-style:normal;font-variant:normal;font-weight:normal;font-stretch:normal;line-height:125%;letter-spacing:0px;word-spacing:0px;fill:#c8c8c9;fill-opacity:1;stroke:none;display:inline;font-family:Ubuntu;-inkscape-font-specification:Ubuntu"
       x="177.70895"
       y="999.8905"
       id="text4551"
       sodipodi:linespacing="125%"><tspan
         sodipodi:role="line"
         id="tspan4553"
         x="177.70895"
         y="999.8905"
         style="font-size:56px;font-style:normal;font-variant:normal;font-weight:bold;font-stretch:normal;text-align:center;text-anchor:middle;fill:#c8c8c9;fill-opacity:1;font-family:Linux Libertine;-inkscape-font-specification:Linux Libertine Bold" /><tspan
         sodipodi:role="line"
         x="177.70895"
         y="1034.9347"
         style="font-size:20px;font-style:normal;font-variant:normal;font-weight:normal;font-stretch:normal;text-align:center;text-anchor:middle;fill:#c8c8c9;fill-opacity:1;font-family:Monospace;-inkscape-font-specification:Monospace"
         id="tspan4555">release critical bugs left</tspan></text>
  </g>
</svg>
